<?xml version="1.0" encoding="UTF-8" standalone="no"?>
<!-- Created with Inkscape (http://www.inkscape.org/) -->

<svg
   xmlns:dc="http://purl.org/dc/elements/1.1/"
   xmlns:cc="http://creativecommons.org/ns#"
   xmlns:rdf="http://www.w3.org/1999/02/22-rdf-syntax-ns#"
   xmlns:svg="http://www.w3.org/2000/svg"
   xmlns="http://www.w3.org/2000/svg"
   xmlns:xlink="http://www.w3.org/1999/xlink"
   xmlns:sodipodi="http://sodipodi.sourceforge.net/DTD/sodipodi-0.dtd"
   xmlns:inkscape="http://www.inkscape.org/namespaces/inkscape"
   width="112.88889mm"
   height="63.5mm"
   viewBox="0 0 399.99999 225"
   id="svg2"
   version="1.1"
   inkscape:version="0.91 r13725"
   sodipodi:docname="cardwo.svg">
  <defs
     id="defs4">
    <linearGradient
       inkscape:collect="always"
       id="linearGradient138950">
      <stop
         style="stop-color:#dc9c8a;stop-opacity:1;"
         offset="0"
         id="stop138952" />
      <stop
         style="stop-color:#dc9c8a;stop-opacity:0;"
         offset="1"
         id="stop138954" />
    </linearGradient>
    <linearGradient
       inkscape:collect="always"
       id="linearGradient138828">
      <stop
         style="stop-color:#aa4938;stop-opacity:1"
         offset="0"
         id="stop138830" />
      <stop
         style="stop-color:#c37155;stop-opacity:1"
         offset="1"
         id="stop138832" />
    </linearGradient>
    <linearGradient
       inkscape:collect="always"
       id="linearGradient138820">
      <stop
         style="stop-color:#c63d2c;stop-opacity:1"
         offset="0"
         id="stop138822" />
      <stop
         style="stop-color:#b5573d;stop-opacity:0.96106559"
         offset="1"
         id="stop138824" />
    </linearGradient>
    <filter
       inkscape:collect="always"
       style="color-interpolation-filters:sRGB"
       id="filter138342"
       x="-0.077241078"
       width="1.1544822"
       y="-0.092055224"
       height="1.1841104">
      <feGaussianBlur
         inkscape:collect="always"
         stdDeviation="2.7243473"
         id="feGaussianBlur138344" />
    </filter>
    <filter
       inkscape:collect="always"
       style="color-interpolation-filters:sRGB"
       id="filter138410"
       x="-0.23665103"
       width="1.4733021"
       y="-0.16152386"
       height="1.3230478">
      <feGaussianBlur
         inkscape:collect="always"
         stdDeviation="1.7445433"
         id="feGaussianBlur138412" />
    </filter>
    <filter
       inkscape:collect="always"
       style="color-interpolation-filters:sRGB"
       id="filter138486"
       x="-0.20271283"
       width="1.4054257"
       y="-0.20530361"
       height="1.4106072">
      <feGaussianBlur
         inkscape:collect="always"
         stdDeviation="3.0618085"
         id="feGaussianBlur138488" />
    </filter>
    <filter
       inkscape:collect="always"
       style="color-interpolation-filters:sRGB"
       id="filter138522"
       x="-0.18861187"
       width="1.3772237"
       y="-0.064385533"
       height="1.1287711">
      <feGaussianBlur
         inkscape:collect="always"
         stdDeviation="2.5629656"
         id="feGaussianBlur138524" />
    </filter>
    <filter
       inkscape:collect="always"
       style="color-interpolation-filters:sRGB"
       id="filter138586"
       x="-0.26278996"
       width="1.5255799"
       y="-0.099171244"
       height="1.1983424">
      <feGaussianBlur
         inkscape:collect="always"
         stdDeviation="2.5459514"
         id="feGaussianBlur138588" />
    </filter>
    <filter
       inkscape:collect="always"
       style="color-interpolation-filters:sRGB"
       id="filter138642"
       x="-0.15790559"
       width="1.3158112"
       y="-0.15413985"
       height="1.3082798">
      <feGaussianBlur
         inkscape:collect="always"
         stdDeviation="0.70432819"
         id="feGaussianBlur138644" />
    </filter>
    <filter
       inkscape:collect="always"
       style="color-interpolation-filters:sRGB"
       id="filter138682"
       x="-0.13531706"
       width="1.2706341"
       y="-0.089859642"
       height="1.1797193">
      <feGaussianBlur
         inkscape:collect="always"
         stdDeviation="0.56732471"
         id="feGaussianBlur138684" />
    </filter>
    <filter
       inkscape:collect="always"
       style="color-interpolation-filters:sRGB"
       id="filter138758"
       x="-0.12330274"
       width="1.2466055"
       y="-0.43354851"
       height="1.867097">
      <feGaussianBlur
         inkscape:collect="always"
         stdDeviation="0.7071068"
         id="feGaussianBlur138760" />
    </filter>
    <filter
       inkscape:collect="always"
       style="color-interpolation-filters:sRGB"
       id="filter138798"
       x="-0.12101338"
       width="1.2420268"
       y="-0.079555862"
       height="1.1591117">
      <feGaussianBlur
         inkscape:collect="always"
         stdDeviation="0.8454915"
         id="feGaussianBlur138800" />
    </filter>
    <filter
       inkscape:collect="always"
       style="color-interpolation-filters:sRGB"
       id="filter138816"
       x="-0.033178475"
       width="1.066357"
       y="-0.086755522"
       height="1.173511">
      <feGaussianBlur
         inkscape:collect="always"
         stdDeviation="0.65634172"
         id="feGaussianBlur138818" />
    </filter>
    <linearGradient
       inkscape:collect="always"
       xlink:href="#linearGradient138820"
       id="linearGradient138826"
       x1="-685.22327"
       y1="619.81964"
       x2="-683.78906"
       y2="636.90521"
       gradientUnits="userSpaceOnUse" />
    <linearGradient
       inkscape:collect="always"
       xlink:href="#linearGradient138828"
       id="linearGradient138834"
       x1="-685.89642"
       y1="637.34271"
       x2="-682.93732"
       y2="653.24463"
       gradientUnits="userSpaceOnUse" />
    <filter
       inkscape:collect="always"
       style="color-interpolation-filters:sRGB"
       id="filter138864"
       x="-0.038095243"
       width="1.0761905"
       y="-0.14117646"
       height="1.2823529">
      <feGaussianBlur
         inkscape:collect="always"
         stdDeviation="0.50507642"
         id="feGaussianBlur138866" />
    </filter>
    <filter
       inkscape:collect="always"
       style="color-interpolation-filters:sRGB"
       id="filter138918"
       x="-0.04576087"
       width="1.0915217"
       y="-0.16877507"
       height="1.33755">
      <feGaussianBlur
         inkscape:collect="always"
         stdDeviation="0.6226506"
         id="feGaussianBlur138920" />
    </filter>
    <filter
       inkscape:collect="always"
       style="color-interpolation-filters:sRGB"
       id="filter138944"
       x="-0.083894923"
       width="1.1677899"
       y="-0.30942094"
       height="1.6188419">
      <feGaussianBlur
         inkscape:collect="always"
         stdDeviation="1.1415261"
         id="feGaussianBlur138946" />
    </filter>
    <linearGradient
       inkscape:collect="always"
       xlink:href="#linearGradient138950"
       id="linearGradient138956"
       x1="-660.06683"
       y1="645.43524"
       x2="-695.07898"
       y2="640.44958"
       gradientUnits="userSpaceOnUse" />
    <filter
       inkscape:collect="always"
       style="color-interpolation-filters:sRGB"
       id="filter138982"
       x="-0.065241963"
       width="1.1304839"
       y="-0.11789721"
       height="1.2357944">
      <feGaussianBlur
         inkscape:collect="always"
         stdDeviation="0.74188662"
         id="feGaussianBlur138984" />
    </filter>
    <filter
       inkscape:collect="always"
       style="color-interpolation-filters:sRGB"
       id="filter139020"
       x="-0.071220122"
       width="1.1424402"
       y="-0.10236936"
       height="1.2047387">
      <feGaussianBlur
         inkscape:collect="always"
         stdDeviation="0.87375609"
         id="feGaussianBlur139022" />
    </filter>
    <filter
       inkscape:collect="always"
       style="color-interpolation-filters:sRGB"
       id="filter139088"
       x="-0.1882953"
       width="1.3765906"
       y="-0.17240475"
       height="1.3448095">
      <feGaussianBlur
         inkscape:collect="always"
         stdDeviation="0.25014086"
         id="feGaussianBlur139090" />
    </filter>
    <filter
       inkscape:collect="always"
       style="color-interpolation-filters:sRGB"
       id="filter139116"
       x="-0.053426757"
       width="1.1068535"
       y="-0.11036839"
       height="1.2207367">
      <feGaussianBlur
         inkscape:collect="always"
         stdDeviation="0.4387194"
         id="feGaussianBlur139118" />
    </filter>
    <filter
       inkscape:collect="always"
       style="color-interpolation-filters:sRGB"
       id="filter139156"
       x="-0.04935449"
       width="1.098709"
       y="-0.133046"
       height="1.2660919">
      <feGaussianBlur
         inkscape:collect="always"
         stdDeviation="0.8519525"
         id="feGaussianBlur139158" />
    </filter>
    <filter
       inkscape:collect="always"
       style="color-interpolation-filters:sRGB"
       id="filter139180"
       x="-0.041562952"
       width="1.0831259"
       y="-0.10783479"
       height="1.2156696">
      <feGaussianBlur
         inkscape:collect="always"
         stdDeviation="0.83399203"
         id="feGaussianBlur139182" />
    </filter>
    <filter
       inkscape:collect="always"
       style="color-interpolation-filters:sRGB"
       id="filter139208"
       x="-0.058980487"
       width="1.117961"
       y="-0.14588393"
       height="1.291768">
      <feGaussianBlur
         inkscape:collect="always"
         stdDeviation="0.9185142"
         id="feGaussianBlur139210" />
    </filter>
    <filter
       inkscape:collect="always"
       style="color-interpolation-filters:sRGB"
       id="filter139287"
       x="-0.19013458"
       width="1.3802692"
       y="-0.22004674"
       height="1.4400935">
      <feGaussianBlur
         inkscape:collect="always"
         stdDeviation="0.4011269"
         id="feGaussianBlur139289" />
    </filter>
    <filter
       inkscape:collect="always"
       style="color-interpolation-filters:sRGB"
       id="filter139312"
       x="-0.049548384"
       width="1.0990968"
       y="-0.046545453"
       height="1.0930909">
      <feGaussianBlur
         inkscape:collect="always"
         stdDeviation="1.9394928"
         id="feGaussianBlur139314" />
    </filter>
    <filter
       inkscape:collect="always"
       style="color-interpolation-filters:sRGB"
       id="filter139338"
       x="-0.061500002"
       width="1.123"
       y="-0.058571428"
       height="1.1171429">
      <feGaussianBlur
         inkscape:collect="always"
         stdDeviation="2.5885159"
         id="feGaussianBlur139340" />
    </filter>
  </defs>
  <sodipodi:namedview
     id="base"
     pagecolor="#ffffff"
     bordercolor="#666666"
     borderopacity="1.0"
     inkscape:pageopacity="0.0"
     inkscape:pageshadow="2"
     inkscape:zoom="1.4"
     inkscape:cx="290.6012"
     inkscape:cy="91.710992"
     inkscape:document-units="px"
     inkscape:current-layer="layer1"
     showgrid="false"
     inkscape:snap-global="false"
     fit-margin-top="0"
     fit-margin-left="0"
     fit-margin-right="0"
     fit-margin-bottom="0"
     inkscape:window-width="1920"
     inkscape:window-height="1016"
     inkscape:window-x="0"
     inkscape:window-y="0"
     inkscape:window-maximized="1" />
  <metadata
     id="metadata7">
    <rdf:RDF>
      <cc:Work
         rdf:about="">
        <dc:format>image/svg+xml</dc:format>
        <dc:type
           rdf:resource="http://purl.org/dc/dcmitype/StillImage" />
        <dc:title></dc:title>
      </cc:Work>
    </rdf:RDF>
  </metadata>
  <g
     inkscape:label="Layer 1"
     inkscape:groupmode="layer"
     id="layer1"
     transform="translate(820.22772,-550.7229)">
    <g
       id="g139407">
      <rect
         ry="7.1938238"
         rx="8.4091883"
         y="550.7229"
         x="-820.22772"
         height="225"
         width="400"
         id="rect139405"
         style="opacity:0.81199999;fill:#def5e7;fill-opacity:1;fill-rule:evenodd;stroke:none;stroke-width:2.20000005;stroke-linecap:round;stroke-linejoin:round;stroke-miterlimit:4;stroke-dasharray:none;stroke-dashoffset:0;stroke-opacity:0.95294118" />
      <g
         transform="matrix(0.52483468,0,0,0.50893508,-291.64893,325.46209)"
         id="g139364">
        <path
           style="fill:#ecbb9d;fill-opacity:1;fill-rule:evenodd;stroke:none;stroke-width:1px;stroke-linecap:butt;stroke-linejoin:miter;stroke-opacity:1"
           d="m -642.9621,480.61586 c 25.57927,8.47795 19.2471,1.94242 35.35534,23.23351 12.80503,9.06719 16.35602,26.54715 22.22336,41.92133 -0.67344,13.33971 -1.34687,28.13696 -2.02031,38.3858 -0.32802,7.10735 0.72008,14.62753 7.07107,23.73858 -4.27725,8.45443 -8.50624,16.76408 -12.12183,23.23351 -3.14518,6.68847 -10.34211,11.75623 -16.66752,17.1726 -16.56973,12.0484 -36.1742,19.37242 -54.54823,23.2335 -4.80853,1.36747 -9.63618,2.7732 -13.13199,1.51523 -10.59895,-0.13775 -13.50533,-3.35252 -17.67767,-6.06091 -8.47167,-10.59824 -8.77602,-13.628 -11.86929,-19.44544 l -7.82868,-20.70812 c -4.99067,-10.10267 -7.80808,-25.09712 -10.60661,-35.86042 1.05728,-9.71847 3.14998,-18.10832 5.55585,-26.5165 -0.0203,-9.93993 -1.84977,-20.48293 0,-29.79951 l 3.53553,-20.20304 c 3.62528,-12.71994 11.99241,-22.73023 20.20305,-32.82996 8.41794,-2.69374 15.82573,-3.70389 22.22336,-3.03046 l 10.85913,3.283 10.85915,-1.76777 c 0,0 6.56599,-2.52538 6.06091,3.53553 -0.50507,6.06092 2.52538,-3.03046 2.52538,-3.03046 z"
           id="path138256"
           inkscape:connector-curvature="0"
           sodipodi:nodetypes="ccccccccccccccccccccsc" />
        <path
           style="fill:#a9a6a6;fill-opacity:1;fill-rule:evenodd;stroke:none;stroke-width:1px;stroke-linecap:butt;stroke-linejoin:miter;stroke-opacity:1"
           d="m -715.58988,557.99355 c -0.71717,2.13674 0.008,3.01153 0.58988,4.01151 3.72071,3.87909 9.50407,4.38294 15,5.35714 6.413,0.53362 5.90104,-0.71985 7.5,-1.42857 -0.12654,-5.71073 -2.79178,-7.3746 -4.30738,-8.06821 -5.01423,-2.59511 -11.7959,-4.14767 -14.24424,-3.92671 -4.11598,0.59288 -3.95336,2.49508 -4.53826,4.05484 z"
           id="path138276"
           inkscape:connector-curvature="0"
           sodipodi:nodetypes="ccccccc" />
        <path
           style="fill:#41464c;fill-opacity:1;fill-rule:evenodd;stroke:none;stroke-width:1px;stroke-linecap:butt;stroke-linejoin:miter;stroke-opacity:1;filter:url(#filter139116)"
           d="m -717.78953,560.60527 c 1.3862,2.63738 1.48489,6.29769 4.68619,9.54011 2.83817,-1.12491 5.46067,-1.31522 7.79401,-0.25254 5.00624,-0.22314 5.27859,-1.39307 7.22765,-2.22765 -2.40914,-0.742 -3.20042,-1.90977 -8.51015,-1.88846 -4.463,-0.17579 -7.50093,-3.30996 -11.1977,-5.17146 z"
           id="path138270"
           inkscape:connector-curvature="0"
           sodipodi:nodetypes="cccccc" />
        <path
           style="opacity:0.83899997;fill:#2b201e;fill-opacity:1;fill-rule:evenodd;stroke:none;stroke-width:1px;stroke-linecap:butt;stroke-linejoin:miter;stroke-opacity:1;filter:url(#filter139020)"
           d="m -693.92857,563.43363 0,3.92857 c 1.36518,-1.39736 3.54677,-1.38457 3.21428,-5.71428 -0.51291,-3.6144 -5.23154,-8.33692 -7.85714,-10.35714 -3.39595,-3.37627 -11.57323,-4.74297 -15.67281,-4.347 -3.10051,0.83797 -5.30025,2.0963 -5.88017,4.11055 0.97948,7.933 1.62839,10.55096 2.28893,9.14521 2.75803,-5.87605 4.43126,-5.02637 6.40691,-6.05162 6.57197,0.22569 11.20075,3.29015 15.94702,5.1894 0.51766,1.36544 1.03532,1.06134 1.55298,4.09631 z"
           id="path138274"
           inkscape:connector-curvature="0"
           sodipodi:nodetypes="cccccccccc" />
        <path
           style="fill:#4c372b;fill-opacity:1;fill-rule:evenodd;stroke:none;stroke-width:1px;stroke-linecap:butt;stroke-linejoin:miter;stroke-opacity:1"
           d="m -663.67022,537.68948 c 2.18711,1.08836 13.23107,-2.61834 15.47616,-1.13007 2.22106,0.36507 2.92426,-1.42634 3.71674,-1.39531 4.13176,1.00746 11.0386,0.61652 20.20305,0 8.66515,-0.21702 14.22126,4.58862 20.20305,7.07107 -4.72119,-2.89782 -9.63375,-6.75248 -14.14214,-8.5863 -1.06518,-1.44692 -2.04815,-2.87329 -4.9641,-4.7829 -4.66127,-1.155 -8.14321,-2.57207 -14.73387,-3.29832 -9.69715,0.30614 -16.5781,1.68511 -21.27711,3.89531 -4.00665,3.41223 -3.87409,5.72068 -4.48178,8.22652 z"
           id="path138258"
           inkscape:connector-curvature="0"
           sodipodi:nodetypes="cccccccccc" />
        <path
           style="fill:#61433a;fill-opacity:1;fill-rule:evenodd;stroke:none;stroke-width:1px;stroke-linecap:butt;stroke-linejoin:miter;stroke-opacity:1"
           d="m -719.22861,535.66918 c 6.6705,-3.51048 12.53304,0.51057 15.69063,2.97181 6.42839,-1.92481 7.96771,0.20206 11.07841,2.07895 -3.54649,-3.7185 -6.6552,-6.8533 -12.12183,-13.13198 -2.52356,-1.4719 -5.94785,-3.02223 -12.24176,-2.91054 -1.69684,6.81824 -1.81098,7.2653 -2.58139,8.52503 z"
           id="path138260"
           inkscape:connector-curvature="0"
           sodipodi:nodetypes="ccccccc" />
        <path
           style="fill:url(#linearGradient138834);fill-opacity:1;fill-rule:evenodd;stroke:none;stroke-width:1px;stroke-linecap:butt;stroke-linejoin:miter;stroke-opacity:1"
           d="m -696.50018,635.67428 c -1.40389,0.45077 -2.97731,1.24058 -5.05076,3.03046 4.04061,4.20897 2.96814,6.11916 12.12183,12.6269 4.17863,1.12972 8.02881,2.64265 14.14213,1.51523 6.29504,-0.88695 8.20049,-2.5055 10.6066,-4.04061 -8.22886,-2.18349 -14.00245,-3.75315 -24.74873,-6.56599 4.04137,-0.21635 10.31883,-0.11326 16.66751,0 7.13015,-0.60292 11.08183,-1.60314 15.65737,-2.52538 -4.46847,-0.37318 -15.02106,-3.20525 -18.18275,-3.03046 -3.53527,-0.60928 -4.53861,-1.098 -14.64721,-2.0203 -2.18866,0.82702 -4.37733,0.81406 -6.56599,1.01015 z"
           id="path138264"
           inkscape:connector-curvature="0"
           sodipodi:nodetypes="ccccccccccc" />
        <path
           sodipodi:nodetypes="ccccccccccc"
           inkscape:connector-curvature="0"
           id="path138802"
           d="m -655.589,640.56698 c -1.53984,-0.74323 -1.74316,-0.74394 -6.06092,-3.03046 -3.43437,-3.95162 -4.11801,-6.3883 -14.14213,-13.13198 -3.36718,-1.61705 -6.73435,0.29615 -10.10153,0.50507 -5.54756,-3.55949 -5.69499,-2.3846 -8.5863,-2.0203 -6.30639,3.34236 -6.21359,7.66921 -8.58629,11.61675 2.18866,2.64891 4.37733,2.17705 6.56599,3.03046 2.96562,-0.43711 4.37839,-1.26243 6.06091,-2.02031 2.92989,1.19638 6.5524,3.14004 8.5863,2.52539 5.50988,-1.32389 6.10324,-0.18952 8.5863,0 7.06186,3.03638 12.41037,2.18927 17.67767,2.52538 z"
           style="opacity:0.87400004;fill:#7a3a29;fill-opacity:1;fill-rule:evenodd;stroke:none;stroke-width:1px;stroke-linecap:butt;stroke-linejoin:miter;stroke-opacity:1;filter:url(#filter138816)" />
        <path
           style="fill:url(#linearGradient138826);fill-opacity:1;fill-rule:evenodd;stroke:none;stroke-width:1px;stroke-linecap:butt;stroke-linejoin:miter;stroke-opacity:1"
           d="m -655.589,639.4052 c -1.53984,-0.74323 -1.74316,-0.74394 -6.06092,-3.03046 -3.43437,-3.95162 -4.11801,-6.3883 -14.14213,-13.13198 -3.36718,-1.61705 -6.73435,0.29615 -10.10153,0.50507 -5.54756,-3.55949 -5.69499,-2.3846 -8.5863,-2.0203 -6.30639,3.34236 -6.21359,7.66921 -8.58629,11.61675 2.18866,2.64891 4.37733,2.17705 6.56599,3.03046 2.96562,-0.43711 4.37839,-1.26243 6.06091,-2.02031 2.92989,1.19638 6.5524,3.14004 8.5863,2.52539 5.50988,-1.32389 6.10324,-0.18952 8.5863,0 7.06186,3.03638 12.41037,2.18927 17.67767,2.52538 z"
           id="path138262"
           inkscape:connector-curvature="0"
           sodipodi:nodetypes="ccccccccccc" />
        <path
           style="fill:#dc9c8a;fill-opacity:1;fill-rule:evenodd;stroke:none;stroke-width:1px;stroke-linecap:butt;stroke-linejoin:miter;stroke-opacity:1;filter:url(#filter138864)"
           d="m -657.10423,639.71489 c -1.77446,3.98848 -3.80785,7.58858 -7.57615,8.5863 -8.08122,-1.33918 -16.16244,-3.54326 -24.24366,-6.566 6.34884,0.60837 12.33708,0.73595 17.67767,0 5.66211,-0.29421 10.15757,-1.05507 14.14214,-2.0203 z"
           id="path138266"
           inkscape:connector-curvature="0"
           sodipodi:nodetypes="ccccc" />
        <path
           style="opacity:0.84899998;fill:#4d6a68;fill-opacity:1;fill-rule:evenodd;stroke:none;stroke-width:1px;stroke-linecap:butt;stroke-linejoin:miter;stroke-opacity:1;filter:url(#filter139208)"
           d="m -650.79078,570.01436 c 5.3173,0.62205 10.20645,1.95766 16.16244,1.51523 5.67927,0.83771 11.54226,-0.46619 14.64722,-4.54569 1.36371,-2.81807 2.23662,-5.40961 6.56599,-9.59645 -2.12082,-0.0426 -2.03922,-2.14988 -7.57615,1.01016 -0.87345,4.81313 -4.68477,5.4293 -7.07106,8.08122 -4.69395,0.33672 -7.95623,0.67343 -16.60887,0.028 -1.19341,0.20625 -3.26245,3.00897 -6.11957,3.50752 z"
           id="path138268"
           inkscape:connector-curvature="0"
           sodipodi:nodetypes="cccccccc" />
        <path
           style="opacity:0.87900002;fill:#635547;fill-opacity:1;fill-rule:evenodd;stroke:none;stroke-width:1px;stroke-linecap:butt;stroke-linejoin:miter;stroke-opacity:1;filter:url(#filter139156)"
           d="m -613.21429,553.43363 c -0.36423,3.93675 -4.60593,4.68027 -8.92857,5.35715 -8.80334,-6.89232 -17.55414,-7.21517 -23.21428,-3.92858 -3.42676,3.33009 -8.84075,10.20882 -9.28572,8.21429 0.77339,-4.55364 2.83828,-8.89203 9.28572,-12.5 6.85099,-2.34254 10.72697,-3.46077 17.32143,-1.51786 4.90185,1.65144 9.70096,3.8166 14.82142,4.375 z"
           id="path138272"
           inkscape:connector-curvature="0"
           sodipodi:nodetypes="ccccccc" />
        <path
           style="fill:#cbc2bc;fill-opacity:1;fill-rule:evenodd;stroke:none;stroke-width:1px;stroke-linecap:butt;stroke-linejoin:miter;stroke-opacity:1"
           d="m -651.42857,560.93363 c -0.45203,1.52345 -0.61875,2.7616 -0.35715,3.57143 6.70547,2.2524 9.8434,1.73005 14.64286,2.5 4.35152,0.43469 6.89246,-0.0359 9.91071,-0.26786 6.40715,-4.13231 4.94589,-5.36703 4.91072,-7.23214 l -2.32143,-1.78571 c -5.23833,-4.01919 -14.53367,-5.08417 -19.28571,-2.85715 -5.26782,2.20833 -5.4664,4.07871 -7.5,6.07143 z"
           id="path138278"
           inkscape:connector-curvature="0"
           sodipodi:nodetypes="cccccccc" />
        <path
           inkscape:connector-curvature="0"
           style="opacity:0.68900003;fill:#58c891;fill-opacity:1;fill-rule:evenodd;stroke:none;stroke-width:2.20000005;stroke-linecap:round;stroke-linejoin:round;stroke-miterlimit:4;stroke-dasharray:none;stroke-dashoffset:0;stroke-opacity:0.95294118"
           d="m -638.4043,553.72852 c -1.46339,0.0439 -2.82978,0.24703 -4.03125,0.59375 a 9.375,9.1964283 0 0 0 -0.95703,4.02148 9.375,9.1964283 0 0 0 6.25781,8.66211 c 2.45364,0.24459 4.31646,0.19416 6.0293,0.0684 a 9.375,9.1964283 0 0 0 6.46289,-8.73047 9.375,9.1964283 0 0 0 -0.0234,-0.64063 c -3.6018,-2.75185 -9.10594,-4.11354 -13.73828,-3.9746 z"
           id="path138280" />
        <path
           style="opacity:0.81199999;fill:#285740;fill-opacity:1;fill-rule:evenodd;stroke:none;stroke-width:2.20000005;stroke-linecap:round;stroke-linejoin:round;stroke-miterlimit:4;stroke-dasharray:none;stroke-dashoffset:0;stroke-opacity:0.95294118"
           d="m -635.31222,554.42118 a 3.7976693,4.0411392 84.402662 0 0 -1.12439,3.00075 3.7976693,4.0411392 84.402662 0 0 4.39293,3.38651 3.7976693,4.0411392 84.402662 0 0 3.65189,-4.17494 3.7976693,4.0411392 84.402662 0 0 -0.14155,-0.69438 c -2.36311,-0.88344 -4.63725,-1.37171 -6.77896,-1.51794 z"
           id="ellipse138286"
           inkscape:connector-curvature="0" />
        <path
           style="opacity:0.28405319;fill:#69f0ae;fill-opacity:1;fill-rule:evenodd;stroke:none;stroke-width:2.20000005;stroke-linecap:round;stroke-linejoin:round;stroke-miterlimit:4;stroke-dasharray:none;stroke-dashoffset:0;stroke-opacity:0.95294118"
           d="m -752.50084,531.39007 a 7.6505623,7.3240561 0 0 0 -0.45703,0.0156 c 2.68519,2.2577 6.59907,6.4275 7.06446,9.70703 0.0359,0.46784 0.0381,0.8763 0.0195,1.25 a 7.6505623,7.3240561 0 0 0 1.02343,-3.64844 7.6505623,7.3240561 0 0 0 -7.65039,-7.32422 z"
           id="path138991"
           inkscape:connector-curvature="0" />
        <path
           inkscape:connector-curvature="0"
           style="opacity:0.49300005;fill:#06eb7b;fill-opacity:1;fill-rule:evenodd;stroke:none;stroke-width:2.20000005;stroke-linecap:round;stroke-linejoin:round;stroke-miterlimit:4;stroke-dasharray:none;stroke-dashoffset:0;stroke-opacity:0.95294118"
           d="m -703.99023,555.66602 a 7.6505623,7.3240561 0 0 0 -0.98243,3.58398 7.6505623,7.3240561 0 0 0 7.65039,7.32422 7.6505623,7.3240561 0 0 0 3.39454,-0.76367 l 0,-2.37696 c -0.51766,-3.03497 -1.03703,-2.73026 -1.55469,-4.0957 -2.73959,-1.09626 -5.45023,-2.56918 -8.50781,-3.67187 z"
           id="ellipse138282" />
        <path
           style="opacity:0.58300003;fill:#080808;fill-opacity:1;fill-rule:evenodd;stroke:none;stroke-width:2.20000005;stroke-linecap:round;stroke-linejoin:round;stroke-miterlimit:4;stroke-dasharray:none;stroke-dashoffset:0;stroke-opacity:0.95294118"
           d="m -700.6839,556.90012 c -0.23025,0.45956 -0.34955,0.95688 -0.3502,1.45991 -0.0903,1.63186 0.47419,4.13765 3.15941,4.31631 2.73551,-0.0903 2.9308,-1.07122 3.68308,-1.70802 -0.27826,-0.47914 -0.55859,-0.80783 -0.83684,-1.54178 -1.86801,-0.7475 -3.72603,-1.64895 -5.65545,-2.52642 z"
           id="ellipse138284"
           inkscape:connector-curvature="0"
           sodipodi:nodetypes="cccccc" />
        <ellipse
           style="opacity:0.50800003;fill:#e6e6e6;fill-opacity:1;fill-rule:evenodd;stroke:none;stroke-width:2.20000005;stroke-linecap:round;stroke-linejoin:round;stroke-miterlimit:4;stroke-dasharray:none;stroke-dashoffset:0;stroke-opacity:0.95294118;filter:url(#filter139287)"
           id="ellipse138288"
           cx="-639.41962"
           cy="557.30231"
           rx="2.5316398"
           ry="2.1875002" />
        <ellipse
           ry="1.7410717"
           rx="1.5941398"
           cy="559.10339"
           cx="-702.76782"
           id="ellipse138290"
           style="opacity:0.65799997;fill:#dedede;fill-opacity:1;fill-rule:evenodd;stroke:none;stroke-width:2.20000005;stroke-linecap:round;stroke-linejoin:round;stroke-miterlimit:4;stroke-dasharray:none;stroke-dashoffset:0;stroke-opacity:0.95294118;filter:url(#filter139088)" />
        <path
           style="opacity:0.728;fill:#a67a5b;fill-opacity:1;fill-rule:evenodd;stroke:none;stroke-width:1px;stroke-linecap:butt;stroke-linejoin:miter;stroke-opacity:1;filter:url(#filter138586)"
           d="m -692.45957,543.24532 c 2.70344,6.93846 11.54859,16.54373 4.29315,33.33504 l -5.05076,11.61675 c -1.58299,2.77224 -7.59876,4.80325 -9.84899,12.62691 -2.79235,0.24146 -3.99809,4.27717 -5.55584,-15.40483 5.45111,-0.15755 10.45845,-3.71731 14.89975,-11.61675 1.74666,-3.65776 4.55173,-4.56363 4.79822,-12.12183 -0.39095,-4.08982 -0.24174,-7.51553 -10.6066,-17.93021 l -3.78807,-4.04061 c 4.08855,3.21014 7.77969,4.69814 10.85914,3.53553 z"
           id="path138292"
           inkscape:connector-curvature="0"
           sodipodi:nodetypes="cccccccccc" />
        <path
           style="opacity:0.82399998;fill:#a86e48;fill-opacity:1;fill-rule:evenodd;stroke:none;stroke-width:1px;stroke-linecap:butt;stroke-linejoin:miter;stroke-opacity:1;filter:url(#filter138798)"
           d="m -694.60615,592.11145 c -0.95782,5.14137 -3.28718,10.40201 3.15673,14.89975 2.7605,2.41546 5.30374,4.28741 8.08122,5.68211 0.85628,2.15623 0.318,3.38275 0.25254,4.92449 -1.62681,-1.74305 -2.36853,-3.26483 -2.65165,-4.67195 -2.78492,-0.36632 -5.26152,-2.55856 -8.08122,-4.54569 -2.12529,-0.52731 -4.33154,-0.64983 -5.80838,-4.41942 0.0422,-1.06067 0.19827,-2.14414 1.89404,-3.53553 l -0.75762,-2.90419 c 0.18536,-3.20913 2.5352,-3.71266 3.91434,-5.42957 z"
           id="path138294"
           inkscape:connector-curvature="0"
           sodipodi:nodetypes="cccccccccc" />
        <path
           style="opacity:0.83399999;fill:#d9a07a;fill-opacity:1;fill-rule:evenodd;stroke:none;stroke-width:1px;stroke-linecap:butt;stroke-linejoin:miter;stroke-opacity:1;filter:url(#filter138642)"
           d="m -690.94434,587.69203 c 0.75761,2.92519 1.51523,6.72376 2.27284,5.80838 2.41331,2.11862 4.71063,2.46185 6.43972,1.89404 -1.42086,1.16931 -0.42819,3.82947 -4.92449,3.15672 -2.36889,-0.75514 -3.79585,-0.92827 -5.55584,-1.38896 -0.60261,-2.81619 0.0134,-5.98057 1.76777,-9.47018 z"
           id="path138296"
           inkscape:connector-curvature="0"
           sodipodi:nodetypes="cccccc" />
        <path
           style="opacity:0.80400002;fill:#5c3c2c;fill-opacity:1;fill-rule:evenodd;stroke:none;stroke-width:1px;stroke-linecap:butt;stroke-linejoin:miter;stroke-opacity:1;filter:url(#filter138758)"
           d="m -670.10995,609.03151 c -1.76774,-0.92597 -2.04172,-1.85195 -2.90418,-2.77792 0.12224,0.20081 -0.90068,0.5755 -6.43973,0.12627 l -2.39911,-0.25254 c -0.13691,0.88388 0.56157,1.76777 -1.76777,2.65165 1.08321,0.60474 1.73556,0.99405 2.14658,1.26269 0.38635,-2.47255 1.19211,-2.00927 1.89403,-2.27285 0.99806,0.24045 1.42155,-0.0937 3.03046,0.75762 1.7071,-0.39448 2.43647,-0.13714 3.15673,0.12627 l 3.53553,1.01015 z"
           id="path138298"
           inkscape:connector-curvature="0"
           sodipodi:nodetypes="ccccccccccc" />
        <path
           style="opacity:0.85;fill:#d29c81;fill-opacity:1;fill-rule:evenodd;stroke:none;stroke-width:1px;stroke-linecap:butt;stroke-linejoin:miter;stroke-opacity:1;filter:url(#filter138682)"
           d="m -667.96337,597.16221 c 1.06666,6.52769 10.70083,10.14013 -2.77792,15.15229 -1.96951,-0.75761 -3.66431,-1.51523 -2.65165,-2.27284 5.54539,0.85162 8.03828,-2.17569 7.57614,-6.43972 -0.73842,-0.74213 -1.8716,-2.66854 -3.28299,-5.42957 z"
           id="path138300"
           inkscape:connector-curvature="0"
           sodipodi:nodetypes="cccccc" />
        <path
           style="opacity:0.844;fill:#d7b9ae;fill-opacity:1;fill-rule:evenodd;stroke:none;stroke-width:1px;stroke-linecap:butt;stroke-linejoin:miter;stroke-opacity:1;filter:url(#filter139180)"
           d="m -654.07377,558.90269 -2.77792,0.3788 c -0.56572,-6.44605 3.8584,-9.77346 6.81853,-14.01586 3.34583,-2.53702 9.83681,-3.35851 15.65736,-4.54569 16.7927,2.23567 19.79715,5.87788 25.00128,8.33376 0.52173,2.2337 1.36768,4.67372 -0.63135,5.3033 -2.43337,-0.11692 -4.59538,-1.0323 -6.81853,-1.76777 -3.68395,-0.96167 -8.32748,-3.21599 -16.92005,-5.05076 -3.55261,0.15112 -6.77164,1.303 -10.10787,2.10325 l -5.47553,3.35695 z"
           id="path138302"
           inkscape:connector-curvature="0"
           sodipodi:nodetypes="ccccccccccc" />
        <path
           style="opacity:0.72600002;fill:#c19b88;fill-opacity:1;fill-rule:evenodd;stroke:none;stroke-width:1px;stroke-linecap:butt;stroke-linejoin:miter;stroke-opacity:1;filter:url(#filter138982)"
           d="m -716.57696,542.1089 c -4.45822,2.06239 -2.2372,5.39577 -2.27285,6.18718 3.283,-2.05251 6.56599,-2.03797 9.84899,-1.76776 l 8.5863,3.03045 c 2.43882,1.55851 4.62872,4.15693 6.75539,5.87152 1.33595,1.2198 1.576,0.2478 1.57837,-1.19956 -1.65851,-2.87046 -4.75022,-5.26318 -7.32361,-7.82868 -2.45189,-2.68804 -6.08709,-4.5759 -9.59645,-5.3033 -3.27278,-0.71869 -5.40929,0.55108 -8.08122,0.88388 z"
           id="path138304"
           inkscape:connector-curvature="0"
           sodipodi:nodetypes="cccccccccc" />
        <path
           style="opacity:0.769;fill:#bfc3b6;fill-opacity:1;fill-rule:evenodd;stroke:none;stroke-width:1px;stroke-linecap:butt;stroke-linejoin:miter;stroke-opacity:1;filter:url(#filter138410)"
           d="m -609.46429,559.14792 c -4.96188,-0.24555 -5.85519,4.1587 -7.67857,7.5 -0.73379,5.29455 -0.97817,6.18445 -1.25,7.32143 3.78062,8.57822 -4.74194,17.87763 16.42857,1.42857 3.52148,-4.74419 -1.64968,-8.78684 0.35715,-11.96429 -2.61905,-7.74991 -5.2381,-3.83786 -7.85715,-4.28571 z"
           id="path138306"
           inkscape:connector-curvature="0"
           sodipodi:nodetypes="cccccc" />
        <path
           style="opacity:0.83600003;fill:#d09878;fill-opacity:1;fill-rule:evenodd;stroke:none;stroke-width:1px;stroke-linecap:butt;stroke-linejoin:miter;stroke-opacity:1;filter:url(#filter138522)"
           d="m -690.71429,612.3622 c -1.57019,2.90603 1.97445,1.08203 -6.38896,8.92858 -5.51712,3.97693 -5.78791,7.20439 -6.78571,10.53571 -0.27683,5.08964 2.57467,10.83155 10.31753,18.92857 -0.39368,2.2233 -0.79826,4.40847 -0.53571,8.92857 l 1.96428,7.67857 c -4.22694,-7.61656 -9.46491,-11.86298 -12.67857,-22.85714 -6.07023,-15.13521 -12.011,-25.61019 -18.39286,-51.96428 0.8974,-6.47983 -2.59849,-9.44502 4.28572,-20.71429 l 5.53571,13.21429 c 2.44048,2.35668 4.88095,0.17259 7.32143,-0.17858 1.56119,2.12092 2.71157,0.85259 5.53571,13.39286 0.38742,3.37396 -1.88456,6.50616 1.78572,10.17857 2.39663,4.69276 5.3405,2.81872 8.03571,3.92857 z"
           id="path138308"
           inkscape:connector-curvature="0"
           sodipodi:nodetypes="cccccccccccccc" />
        <path
           style="fill:#51332b;fill-opacity:1;fill-rule:evenodd;stroke:none;stroke-width:1px;stroke-linecap:butt;stroke-linejoin:miter;stroke-opacity:1"
           d="m -649.27555,479.35317 c 11.76909,3.62694 21.74869,8.10876 30.15664,9.71901 l 11.00708,13.00943 c 8.31785,9.56916 11.38241,17.73676 15.74402,24.00906 l 6.52266,24.09574 -1.72444,35.58992 c -1.39058,8.41794 2.09736,17.19302 7.36694,25.61096 -2.25902,12.20723 -4.55061,28.53848 -4.98949,29.82489 -4.3919,16.12287 -5.96151,29.01405 -4.29315,34.36312 2.76893,17.43885 9.49135,25.15013 15.50943,31.54189 6.94002,15.89389 18.43907,23.69544 32.78663,28.81473 3.92286,5.21327 9.00198,7.72861 11.11168,17.17259 0.12798,15.4247 0.22774,31.21624 1.01015,38.13326 10.31632,-3.06041 12.72396,22.87765 17.42514,40.4061 1.77429,18.07083 10.64963,38.67776 -5.05077,50.50763 l 39.14341,-0.75761 c 9.21036,-26.66889 24.79929,-6.95468 8.33376,-30.80966 -2.36867,-1.12101 -1.41952,-4.23272 -0.50507,-7.3236 17.7703,22.68131 11.95073,-3.06144 13.63706,-14.39468 1.49466,-9.67311 18.32735,-14.1141 14.64721,-23.2335 1.44186,-6.22387 -3.15006,-15.46463 -8.33376,-25.00128 1.57517,-11.36422 -1.23135,-22.72843 -2.77792,-34.09265 -17.7671,-5.69117 -22.73915,-12.09317 -28.78935,-18.43528 -8.36385,-17.70458 -1.72576,-19.52476 0.50508,-26.01143 7.89522,-5.08973 6.29558,-13.02791 8.08122,-19.95051 19.20579,-41.457 -10.37686,-43.73924 -10.6066,-48.23479 -12.31629,-14.05973 -15.51579,-34.5933 -19.69798,-49.49747 -4.37766,-20.155 -3.70455,-39.58846 -3.53553,-59.09393 l -2.02031,-8.08122 -5.55584,6.31346 c -0.63375,-6.05357 0.71419,-17.58726 2.02031,-28.78935 -4.08563,-2.76492 -25.76127,-46.36468 -36.11295,-47.72971 -45.31674,-6.59161 -109.76991,-2.02031 -164.65487,-3.03046 -9.57179,3.89307 -12.07624,11.83458 -21.2132,25.00128 -1.97113,0.78845 -6.84514,41.03392 -4.54569,40.4061 5.89478,-1.60945 -2.85262,23.00587 -3.53553,23.23351 -15.59355,19.83191 -30.24285,7.88378 -44.44672,6.06091 8.24683,7.44583 15.6637,15.48449 37.62819,13.13199 -16.50159,9.35257 -11.86187,16.59102 -16.41498,24.74874 3.86309,41.21903 25.12202,37.97661 21.46574,63.38707 -0.63999,12.29956 -9.09389,21.18054 -20.45559,28.78935 -7.00742,22.58808 2.69374,22.39171 4.04061,33.58757 -8.11673,-34.33436 8.19935,-32.95571 12.62691,-38.63834 11.56975,-3.34957 12.08488,-14.43738 17.67767,-21.97082 2.5827,9.19856 0.92792,21.0048 -13.8896,40.91118 -4.9537,26.56648 15.48901,24.74874 23.23351,37.12311 20.34142,32.729 9.26236,42.1204 5.3033,46.71955 -16.00446,15.22361 -30.21058,10.53928 -43.18402,9.34392 8.5835,1.49139 9.17523,5.45284 37.62818,2.0203 4.09941,4.21363 5.88241,16.53469 7.32361,30.05204 6.3144,-33.20975 17.74201,-20.72229 22.72843,-40.65864 -1.82711,-25.62302 6.86181,-28.44097 -8.5863,-54.54824 6.37448,7.40673 12.85875,15.41726 17.93021,15.65737 -8.08951,-20.8089 -4.19927,-17.65828 -5.05076,-23.99113 6.3797,11.78365 12.99498,20.26913 20.70812,13.38452 -1.59348,-21.73487 -1.786,-33.95088 -4.0406,-44.44671 -13.16349,3.10987 -23.24606,-3.55916 -28.03174,-8.83883 -11.50418,-22.86916 -18.05598,-47.91093 -27.00364,-73.97573 -0.84298,-4.58772 3.0185,-17.0162 4.52775,-25.5243 -0.8735,-18.61323 2.77205,-38.67811 10.62454,-65.3461 l 13.87166,-18.49656 c 14.25542,-4.63259 16.93854,-3.61086 22.91969,-3.78807 4.69071,2.0967 12.64948,4.92562 13.69834,5.80837 4.47383,0.43322 6.22621,-1.85501 8.08122,-4.04061 z"
           id="path139294"
           inkscape:connector-curvature="0"
           sodipodi:nodetypes="ccccccccccccccccccccccccccccccccccscccccccccccccccccccccccccccccc" />
        <path
           style="fill:#a46f50;fill-opacity:1;fill-rule:evenodd;stroke:none;stroke-width:1px;stroke-linecap:butt;stroke-linejoin:miter;stroke-opacity:1;filter:url(#filter139312)"
           d="m -582.60548,610.92554 -12.12183,27.02158 -22.22336,16.66752 -38.63833,16.41498 -16.92006,4.04061 5.55584,35.35534 42.67895,-46.9721 22.98097,-14.39467 14.64721,-17.93021 0.50507,11.36422 7.57615,-12.62691 -2.27284,-19.44543 z"
           id="path138314"
           inkscape:connector-curvature="0" />
        <path
           style="opacity:0.79100001;fill:#dea480;fill-opacity:1;fill-rule:evenodd;stroke:none;stroke-width:1px;stroke-linecap:butt;stroke-linejoin:miter;stroke-opacity:1;filter:url(#filter138486)"
           d="m -598.03572,581.29078 c -11.51925,8.50072 -23.67387,16.90112 -26.42857,26.78571 0.23062,2.82965 -1.1034,5.86338 9.64286,7.32143 9.17565,-0.23211 22.53565,-4.10322 24.28571,-12.5 -0.93261,0.98577 0.42271,-9.08676 2.32143,-21.78572 -2.24971,-1.25717 -4.33505,-2.72568 -9.82143,0.17858 z"
           id="path138310"
           inkscape:connector-curvature="0"
           sodipodi:nodetypes="cccccc" />
        <path
           style="opacity:0.86499999;fill:#e4ad8f;fill-opacity:1;fill-rule:evenodd;stroke:none;stroke-width:1px;stroke-linecap:butt;stroke-linejoin:miter;stroke-opacity:1;filter:url(#filter138342)"
           d="m -634.28572,503.6122 c -14.16102,4.72376 -31.4973,4.86104 -40.17857,17.5 -1.51384,7.96361 -5.56831,13.61756 -0.17857,27.85715 -1.98177,5.27945 -5.19243,7.6096 -10.53571,4.82143 -8.6713,-12.21247 -4.79149,-31.0308 -26.07143,-36.60715 -3.51166,-2.99598 2.13302,-17.95122 16.78571,-31.25 16.81685,-4.54536 20.46365,0.027 29.46429,0.89286 9.79016,2.68626 19.61752,3.16835 29.46428,2.5 11.47575,4.7619 9.22616,9.52381 1.25,14.28571 z"
           id="path138312"
           inkscape:connector-curvature="0"
           sodipodi:nodetypes="ccccccccc" />
        <path
           inkscape:connector-curvature="0"
           id="path139316"
           d="m -582.60548,610.92554 -12.12183,27.02158 -22.22336,16.66752 -38.63833,16.41498 -16.92006,4.04061 5.55584,35.35534 42.67895,-46.9721 22.98097,-14.39467 14.64721,-17.93021 0.50507,11.36422 7.57615,-12.62691 -2.27284,-19.44543 z"
           style="fill:#a46f50;fill-opacity:1;fill-rule:evenodd;stroke:none;stroke-width:1px;stroke-linecap:butt;stroke-linejoin:miter;stroke-opacity:1;filter:url(#filter139312)" />
        <path
           style="fill:#e1aa89;fill-opacity:1;fill-rule:evenodd;stroke:none;stroke-width:1px;stroke-linecap:butt;stroke-linejoin:miter;stroke-opacity:1;filter:url(#filter139338)"
           d="m -667.4583,710.93064 -6.81852,20.70813 12.87944,-3.03046 8.5863,9.09138 20.96066,-14.64722 40.91118,-13.88959 17.67767,-4.79823 -15.40483,-29.54696 2.02031,-28.53681 3.28299,-8.33376 -3.78807,-6.31345 -15.15229,18.18274 -21.71828,14.14214 z"
           id="path138316"
           inkscape:connector-curvature="0" />
        <path
           sodipodi:nodetypes="ccccc"
           inkscape:connector-curvature="0"
           id="path138868"
           d="m -657.01494,639.71489 c -1.32803,3.80991 -3.98642,7.85644 -7.75472,8.85416 -7.57614,-1.71799 -19.24969,-4.39465 -24.90116,-6.43973 4.82912,-0.36934 14.60172,0.25253 18.51374,-0.39413 3.42997,-0.47278 7.21114,-0.51936 14.14214,-2.0203 z"
           style="opacity:0.80730896;fill:#dc9c8a;fill-opacity:1;fill-rule:evenodd;stroke:none;stroke-width:1px;stroke-linecap:butt;stroke-linejoin:miter;stroke-opacity:1;filter:url(#filter138918)" />
        <path
           style="opacity:0.71262458;fill:#dc9c8a;fill-opacity:1;fill-rule:evenodd;stroke:none;stroke-width:1px;stroke-linecap:butt;stroke-linejoin:miter;stroke-opacity:1;filter:url(#filter138944)"
           d="m -659.66659,639.71489 c -1.32803,3.80991 -3.98642,7.85644 -7.75472,8.85416 -7.57614,-1.71799 -19.24969,-4.39465 -24.90116,-6.43973 4.82912,-0.36934 14.60172,0.25253 18.51374,-0.39413 3.42997,-0.47278 7.21114,-0.51936 14.14214,-2.0203 z"
           id="path138922"
           inkscape:connector-curvature="0"
           sodipodi:nodetypes="ccccc" />
        <path
           sodipodi:nodetypes="ccccc"
           inkscape:connector-curvature="0"
           id="path138948"
           d="m -662.31824,639.20981 c -1.32803,3.80991 -3.98642,7.85644 -7.75472,8.85416 -7.57614,-1.71799 -19.24969,-4.39465 -24.90116,-6.43973 4.82912,-0.36934 14.60172,0.25253 18.51374,-0.39413 3.42997,-0.47278 7.21114,-0.51936 14.14214,-2.0203 z"
           style="opacity:0.71262458;fill:url(#linearGradient138956);fill-opacity:1;fill-rule:evenodd;stroke:none;stroke-width:1px;stroke-linecap:butt;stroke-linejoin:miter;stroke-opacity:1;filter:url(#filter138944)" />
        <path
           inkscape:connector-curvature="0"
           id="path139342"
           d="m -668.17259,713.78778 -6.81852,20.70813 12.87944,-3.03046 8.5863,9.09138 20.96066,-14.64722 40.91118,-13.88959 17.67767,-4.79823 -15.40483,-29.54696 2.02031,-28.53681 3.28299,-8.33376 -3.78807,-6.31345 -15.15229,18.18274 -21.71828,14.14214 z"
           style="fill:#e1aa89;fill-opacity:1;fill-rule:evenodd;stroke:none;stroke-width:1px;stroke-linecap:butt;stroke-linejoin:miter;stroke-opacity:1" />
      </g>
    </g>
  </g>
</svg>
